<svg width="850" height="430" viewBox="0 0 850 430" fill="none" xmlns="http://www.w3.org/2000/svg">
<g clip-path="url(#clip0)">
<path d="M811.865 286.996C803.162 289.15 745.893 309.887 719.849 320.211C667.962 340.858 574.351 382.601 571.428 386.461C570.963 387.09 570.431 389.424 570.232 391.488C569.966 394.541 570.232 395.977 571.295 397.862C574.019 402.53 577.274 403.248 597.936 404.146C632.816 405.582 669.556 405.942 683.973 404.864C724.101 401.992 758.449 394.092 790.539 380.357L801.434 375.689L803.361 371.649C808.942 359.979 814.988 340.23 820.037 317.338C825.152 294.088 825.352 291.933 822.827 288.612C821.498 286.727 820.635 286.367 817.379 286.457C815.253 286.547 812.795 286.816 811.865 286.996Z" fill="white"/>
<path d="M514.425 234.66C511.634 236.365 506.452 242.829 504.459 247.228C498.745 259.347 499.078 274.697 505.123 278.557C508.379 280.622 510.771 280.443 514.757 277.75C523.194 272.094 529.772 254.499 527.579 243.457C526.317 237.353 523.792 234.121 519.806 233.762C517.879 233.493 515.687 233.852 514.425 234.66Z" fill="white"/>
<path d="M306.144 325.058C267.876 329.547 237.049 336.639 163.768 357.735C139.319 364.737 123.042 369.225 92.5472 377.125C89.9562 377.843 88.6274 378.741 87.3651 380.716C82.3823 388.795 87.2987 391.937 110.286 395.438C118.126 396.695 125.766 398.042 127.228 398.491C131.28 399.837 147.69 402.261 166.758 404.505C183.301 406.39 228.744 407.198 243.825 405.852C266.281 403.877 288.87 399.927 306.21 395.169C312.056 393.463 312.588 393.104 315.71 389.065C321.756 381.075 328.932 364.647 334.512 345.975C338.366 333.138 338.432 327.033 334.844 324.52C332.32 322.724 324.082 322.904 306.144 325.058Z" fill="white"/>
<path d="M35.2781 199.38C26.6412 204.048 20.3961 222.81 24.0502 232.954C25.2461 236.186 27.4385 237.891 30.6275 237.891C40.128 237.891 49.695 216.167 45.443 204.138C43.6492 199.111 39.3972 197.136 35.2781 199.38Z" fill="white"/>
<g filter="url(#filter0_d)">
<path d="M79.0606 2.06472C72.6162 5.02714 68.6299 8.52819 63.1156 16.0689C47.4364 37.4342 31.2921 75.4071 12.6232 134.566C4.11921 161.497 4.25209 160.689 2.39184 194.353C1.7939 204.228 0.996655 216.975 0.598031 222.63C-0.265656 235.019 0.265844 264.463 1.66103 279.006C2.92334 292.741 4.65071 305.309 5.58084 307.553C5.97946 308.63 7.97258 311.234 9.9657 313.478C13.6198 317.428 13.6198 317.518 17.7389 332.689C20.0642 341.038 24.0504 356.119 26.6415 366.263C32.2222 387.898 32.6873 388.706 43.5166 395.797C74.3435 416.175 147.159 430 223.562 430C261.033 430 288.671 426.948 308.602 420.574C322.022 416.265 332.785 409.712 334.114 404.954C334.446 403.697 340.093 386.82 346.67 367.61L358.563 332.599L361.818 331.163C363.546 330.355 365.539 328.739 366.203 327.662C368.196 324.34 374.906 293.549 377.697 275.056C378.228 271.555 395.369 262.668 407.859 259.347C416.895 256.923 431.976 256.743 441.144 258.898C451.774 261.501 471.971 271.645 472.636 274.877C472.769 275.505 473.965 282.148 475.293 289.599C478.217 306.386 482.601 325.058 484.196 327.662C484.86 328.739 486.853 330.355 488.581 331.163L491.836 332.599L504.526 370.033L517.149 407.378L520.537 410.161C536.416 423.177 572.956 430 626.837 430C703.24 430 776.055 416.175 806.882 395.797C816.715 389.334 818.442 386.82 821.499 374.791C825.95 357.196 836.314 318.954 837.111 317.248C837.51 316.261 839.237 314.286 840.898 312.85C842.493 311.324 844.22 309.169 844.752 307.912C845.682 305.489 847.808 289.509 849.203 275.146C849.668 269.85 850 256.474 850 242.38C849.934 215.09 848.804 201.983 845.084 188.338C841.43 174.783 837.709 170.833 824.555 166.434C795.787 157.008 729.682 156.47 653.744 165.267C602.72 171.102 548.839 181.785 518.212 192.109C515.222 193.096 507.183 194.353 498.281 195.161C455.163 199.2 442.872 200.367 413.905 202.881C396.565 204.407 378.76 205.933 374.375 206.382C367.266 207.01 366.07 206.921 363.413 205.395C331.656 186.992 251.665 169.486 165.429 162.125C114.87 157.727 66.3711 158.086 40.1947 162.933C36.5407 163.562 33.4845 164.01 33.2852 163.831C33.1524 163.562 32.8202 160.061 32.488 156.021C32.2222 151.891 31.6243 143.812 31.2257 137.977C30.2955 125.319 30.827 121.459 35.6105 106.198C44.8453 76.7537 60.4581 44.6159 74.6757 25.8539C82.914 14.9019 84.9735 13.3758 88.6276 15.7098C93.1453 18.6722 103.775 36.6263 113.475 57.9019C117.063 65.7119 120.717 70.9186 122.644 70.9186C127.427 70.9186 133.207 56.286 130.882 50.1816C127.493 41.4739 114.339 24.3278 99.2576 8.88727C90.7536 0.17954 90.5543 0 86.9666 0C84.9735 0 81.4523 0.987474 79.0606 2.06472ZM118.591 181.336C179.448 184.568 214.726 189.236 266.082 200.727C282.16 204.317 308.403 211.05 308.07 211.589C307.937 211.768 295.912 212.846 281.296 214.102C246.549 217.065 239.042 218.681 228.213 225.952C222.3 229.902 222.167 230.081 218.446 236.545C213.463 245.342 201.239 260.783 186.357 276.942C168.485 296.422 161.443 305.578 161.443 309.349C161.443 317.248 170.744 327.841 176.458 326.315C179.115 325.687 184.098 319.762 188.815 311.683C190.742 308.361 195.725 300.461 199.91 293.998C208.68 280.443 221.104 259.706 227.15 248.484C232.93 237.622 233.461 237.353 249.473 236.635C256.448 236.365 276.911 234.929 294.982 233.493C354.577 228.645 357.433 228.466 358.629 229.453C359.426 230.171 360.157 233.313 360.954 239.328C362.483 250.28 362.815 282.148 361.552 295.793C359.294 319.672 359.626 318.056 356.237 321.557C353.115 324.699 353.115 324.789 340.824 364.468C332.719 390.77 328.134 404.595 327.204 405.313C322.753 409.173 306.277 415.008 290.597 418.24C257.511 425.152 204.295 426.589 166.426 421.472C113.807 414.47 86.3687 407.827 59.4616 395.797C45.9748 389.783 36.0756 383.319 35.1455 380.088C34.8133 378.651 30.6277 361.236 25.9107 341.217C18.3368 309.349 17.0745 304.591 15.2143 301.898L13.0218 298.935L12.4239 279.814C11.3609 248.305 13.2211 223.528 18.2704 203.599C21.5258 190.493 22.1902 189.326 27.3059 186.992C32.5544 184.658 43.583 182.324 54.6116 181.426C66.7032 180.349 99.5898 180.349 118.591 181.336ZM751.407 204.766C833.856 207.1 832.527 207.01 833.192 208.357C833.989 210.152 835.65 220.476 836.779 230.351C838.174 242.739 838.639 265.002 837.909 283.046L837.244 299.025L835.185 301.987C833.324 304.591 831.929 309.708 824.09 343.013C819.107 363.929 814.921 381.434 814.722 381.883C813.858 383.678 799.574 391.937 789.609 396.336C763.366 408.006 734.665 414.739 680.651 421.921C646.104 426.499 591.891 424.883 559.735 418.24C543.857 415.008 524.324 407.827 522.331 404.595C521.932 403.967 516.219 385.923 509.575 364.468C497.55 325.418 496.819 323.532 492.434 319.582C491.105 318.415 490.84 316.62 489.511 302.526C487.651 281.61 487.518 255.935 489.245 241.752C489.909 236.186 490.773 231.069 491.238 230.351C492.833 227.478 529.108 214.641 542.129 212.307C590.429 203.868 646.502 201.804 751.407 204.766ZM472 224C470.871 229.835 469.314 229.722 466.058 231.697C458.152 236.455 443.204 238.251 418.423 237.622C399.488 237.084 392.379 236.096 385.337 232.954C383.941 232.325 382.646 231.352 381.721 230.351C380.534 229.066 379.956 227.736 380.554 227.029C380.819 226.67 386.4 225.952 392.977 225.413C425.266 222.81 451.509 220.656 458.086 220.027C462.139 219.578 466.789 219.219 468.517 219.129L472.636 221L472 224Z" fill="#FF725E"/>
<path d="M518.212 192.109C548.839 181.785 602.72 171.102 653.744 165.267C729.682 156.47 795.787 157.008 824.555 166.434C837.709 170.833 841.43 174.783 845.084 188.338C848.804 201.983 849.934 215.09 850 242.38C850 256.474 849.668 269.85 849.203 275.146C847.808 289.509 845.682 305.489 844.752 307.912C844.22 309.169 842.493 311.324 840.898 312.85C839.237 314.286 837.51 316.261 837.111 317.248C836.314 318.954 825.95 357.196 821.499 374.791C818.442 386.82 816.715 389.334 806.882 395.797C776.055 416.175 703.24 430 626.837 430C572.956 430 536.416 423.177 520.537 410.161L517.149 407.378L504.526 370.033L491.836 332.599L488.581 331.163C486.853 330.355 484.86 328.739 484.196 327.662C482.601 325.058 478.217 306.386 475.293 289.599C473.965 282.148 472.769 275.505 472.636 274.877C471.971 271.645 451.774 261.501 441.144 258.898C431.976 256.743 416.895 256.923 407.859 259.347C395.369 262.668 378.228 271.555 377.697 275.056C374.906 293.549 368.196 324.34 366.203 327.662C365.539 328.739 363.546 330.355 361.818 331.163L358.563 332.599L346.67 367.61C340.093 386.82 334.446 403.697 334.114 404.954C332.785 409.712 322.022 416.265 308.602 420.574C288.671 426.948 261.033 430 223.562 430C147.159 430 74.3435 416.175 43.5166 395.797C32.6873 388.706 32.2222 387.898 26.6415 366.263C24.0504 356.119 20.0642 341.038 17.7389 332.689C13.6198 317.518 13.6198 317.428 9.9657 313.478C7.97258 311.234 5.97946 308.63 5.58084 307.553C4.65071 305.309 2.92334 292.741 1.66103 279.006C0.265844 264.463 -0.265656 235.019 0.598031 222.63C0.996655 216.975 1.7939 204.228 2.39184 194.353C4.25209 160.689 4.11921 161.497 12.6232 134.566C31.2921 75.4071 47.4364 37.4342 63.1156 16.0689C68.6299 8.52819 72.6162 5.02714 79.0606 2.06472C81.4523 0.987474 84.9735 0 86.9666 0C90.5543 0 90.7536 0.17954 99.2576 8.88727C114.339 24.3278 127.493 41.4739 130.882 50.1816C133.207 56.286 127.427 70.9186 122.644 70.9186C120.717 70.9186 117.063 65.7119 113.475 57.9019C103.775 36.6263 93.1453 18.6722 88.6276 15.7098C84.9735 13.3758 82.914 14.9019 74.6757 25.8539C60.4581 44.6159 44.8453 76.7537 35.6105 106.198C30.827 121.459 30.2955 125.319 31.2257 137.977C31.6243 143.812 32.2222 151.891 32.488 156.021C32.8202 160.061 33.1524 163.562 33.2852 163.831C33.4845 164.01 36.5407 163.562 40.1947 162.933C66.3711 158.086 114.87 157.727 165.429 162.125C251.665 169.486 331.656 186.992 363.413 205.395M518.212 192.109C515.222 193.096 507.183 194.353 498.281 195.161C455.163 199.2 442.872 200.367 413.905 202.881C396.565 204.407 378.76 205.933 374.375 206.382C367.266 207.01 366.07 206.921 363.413 205.395M518.212 192.109C502.023 200.266 471.094 219.032 472.636 221M363.413 205.395L381.721 230.351M308.07 211.589C308.403 211.05 282.16 204.317 266.082 200.727C214.726 189.236 179.448 184.568 118.591 181.336C99.5898 180.349 66.7032 180.349 54.6116 181.426C43.583 182.324 32.5544 184.658 27.3059 186.992C22.1902 189.326 21.5258 190.493 18.2704 203.599C13.2211 223.528 11.3609 248.305 12.4239 279.814L13.0218 298.935L15.2143 301.898C17.0745 304.591 18.3368 309.349 25.9107 341.217C30.6277 361.236 34.8133 378.651 35.1455 380.088C36.0756 383.319 45.9748 389.783 59.4616 395.797C86.3687 407.827 113.807 414.47 166.426 421.472C204.295 426.589 257.511 425.152 290.597 418.24C306.277 415.008 322.753 409.173 327.204 405.313C328.134 404.595 332.719 390.77 340.824 364.468C353.115 324.789 353.115 324.699 356.237 321.557C359.626 318.056 359.294 319.672 361.552 295.793C362.815 282.148 362.483 250.28 360.954 239.328C360.157 233.313 359.426 230.171 358.629 229.453M308.07 211.589C307.937 211.768 295.912 212.846 281.296 214.102C246.549 217.065 239.042 218.681 228.213 225.952C222.3 229.902 222.167 230.081 218.446 236.545C213.463 245.342 201.239 260.783 186.357 276.942C168.485 296.422 161.443 305.578 161.443 309.349C161.443 317.248 170.744 327.841 176.458 326.315C179.115 325.687 184.098 319.762 188.815 311.683C190.742 308.361 195.725 300.461 199.91 293.998C208.68 280.443 221.104 259.706 227.15 248.484C232.93 237.622 233.461 237.353 249.473 236.635C256.448 236.365 276.911 234.929 294.982 233.493C354.577 228.645 357.433 228.466 358.629 229.453M308.07 211.589C324.595 216.796 357.841 227.658 358.629 229.453M472.636 221L468.517 219.129C466.789 219.219 462.139 219.578 458.086 220.027C451.509 220.656 425.266 222.81 392.977 225.413C386.4 225.952 380.819 226.67 380.554 227.029C379.956 227.736 380.534 229.066 381.721 230.351M472.636 221L472 224C470.871 229.835 469.314 229.722 466.058 231.697C458.152 236.455 443.204 238.251 418.423 237.622C399.488 237.084 392.379 236.096 385.337 232.954C383.941 232.325 382.646 231.352 381.721 230.351M751.407 204.766C833.856 207.1 832.527 207.01 833.192 208.357C833.989 210.152 835.65 220.476 836.779 230.351C838.174 242.739 838.639 265.002 837.909 283.046L837.244 299.025L835.185 301.987C833.324 304.591 831.929 309.708 824.09 343.013C819.107 363.929 814.921 381.434 814.722 381.883C813.858 383.678 799.574 391.937 789.609 396.336C763.366 408.006 734.665 414.739 680.651 421.921C646.104 426.499 591.891 424.883 559.735 418.24C543.857 415.008 524.324 407.827 522.331 404.595C521.932 403.967 516.219 385.923 509.575 364.468C497.55 325.418 496.819 323.532 492.434 319.582C491.105 318.415 490.84 316.62 489.511 302.526C487.651 281.61 487.518 255.935 489.245 241.752C489.909 236.186 490.773 231.069 491.238 230.351C492.833 227.478 529.108 214.641 542.129 212.307C590.429 203.868 646.502 201.804 751.407 204.766Z" stroke="white"/>
</g>
</g>
<defs>
<filter id="filter0_d" x="-4.32028" y="-0.5" width="858.82" height="439" filterUnits="userSpaceOnUse" color-interpolation-filters="sRGB">
<feFlood flood-opacity="0" result="BackgroundImageFix"/>
<feColorMatrix in="SourceAlpha" type="matrix" values="0 0 0 0 0 0 0 0 0 0 0 0 0 0 0 0 0 0 127 0" result="hardAlpha"/>
<feOffset dy="4"/>
<feGaussianBlur stdDeviation="2"/>
<feComposite in2="hardAlpha" operator="out"/>
<feColorMatrix type="matrix" values="0 0 0 0 0 0 0 0 0 0 0 0 0 0 0 0 0 0 0.25 0"/>
<feBlend mode="normal" in2="BackgroundImageFix" result="effect1_dropShadow"/>
<feBlend mode="normal" in="SourceGraphic" in2="effect1_dropShadow" result="shape"/>
</filter>
<clipPath id="clip0">
<rect width="850" height="430" fill="white"/>
</clipPath>
</defs>
</svg>
